# Blender 4.1.1
# www.blender.org
mtllib Boxes.mtl
o Boxes
v -2.117575 2.323664 1.458741
v -2.117575 2.323664 1.129934
v -2.117575 2.652471 1.458741
v -1.788768 2.323664 1.458741
v -1.788768 2.323664 1.129934
v -1.788768 2.652471 1.458741
v -1.788768 2.652471 1.129934
v -2.117575 2.652471 1.129934
v -1.740439 2.323664 1.458741
v -1.740439 2.323664 1.129934
v -1.740439 2.652471 1.458741
v -1.411632 2.323664 1.458741
v -1.411632 2.323664 1.129934
v -1.411632 2.652471 1.458741
v -1.411632 2.652471 1.129934
v -1.740439 2.652471 1.129934
v -0.024771 2.323664 1.458741
v -0.024771 2.323664 1.129934
v -0.024771 2.652471 1.458741
v 0.304036 2.323664 1.458741
v 0.304036 2.323664 1.129934
v 0.304036 2.652471 1.458741
v 0.304036 2.652471 1.129934
v -0.024771 2.652471 1.129934
v 0.597125 2.325675 1.501595
v 0.465789 2.325675 1.073840
v 0.597125 2.773138 1.501595
v 1.024879 2.325675 1.370260
v 0.893544 2.325675 0.942505
v 1.024879 2.773138 1.370260
v 0.893544 2.773138 0.942505
v 0.465789 2.773138 1.073840
v 0.633668 2.770454 1.357330
v 0.684911 2.770454 1.180101
v 0.633668 2.954942 1.357330
v 0.810897 2.770454 1.408574
v 0.862140 2.770454 1.231345
v 0.810897 2.954942 1.408574
v 0.862140 2.954942 1.231345
v 0.684911 2.954942 1.180101
v 1.079954 2.322767 1.393647
v 1.102858 2.322767 1.172124
v 1.079954 2.593237 1.393647
v 1.301477 2.322767 1.416551
v 1.324381 2.322767 1.195028
v 1.301477 2.593237 1.416551
v 1.324381 2.593237 1.195028
v 1.102858 2.593237 1.172124
v 1.480931 2.345099 1.393907
v 1.480407 2.351695 1.171301
v 1.384410 2.317429 1.393315
v 1.419548 2.559079 1.400392
v 1.419024 2.565675 1.177786
v 1.323027 2.531409 1.399800
v 1.322503 2.538004 1.177194
v 1.383886 2.324025 1.170709
v -0.942473 2.319641 1.081373
v -0.506068 2.319641 1.070897
v -0.942473 2.756172 1.081373
v -0.931996 2.319641 1.517779
v -0.495591 2.319641 1.507302
v -0.931996 2.756172 1.517779
v -0.495591 2.756172 1.507302
v -0.506068 2.756172 1.070897
vn -0.0000 -1.0000 -0.0000
vn -1.0000 -0.0000 -0.0000
vn -0.0000 -0.0000 1.0000
vn 1.0000 -0.0000 -0.0000
vn -0.0000 1.0000 -0.0000
vn -0.0000 -0.0000 -1.0000
vn -0.9560 -0.0000 0.2935
vn 0.2935 -0.0000 0.9560
vn 0.9560 -0.0000 -0.2935
vn -0.2935 -0.0000 -0.9560
vn -0.9607 -0.0000 -0.2778
vn -0.2778 -0.0000 0.9607
vn 0.9607 -0.0000 0.2778
vn 0.2778 -0.0000 -0.9607
vn -0.9947 -0.0000 -0.1028
vn -0.1028 -0.0000 0.9947
vn 0.9947 -0.0000 0.1028
vn 0.1028 -0.0000 -0.9947
vn 0.9613 0.2756 0.0059
vn 0.2756 -0.9608 -0.0291
vn 0.0024 -0.0296 0.9996
vn -0.2756 0.9608 0.0291
vn -0.9613 -0.2756 -0.0059
vn -0.0024 0.0296 -0.9996
vn -0.0240 -0.0000 -0.9997
vn -0.9997 -0.0000 0.0240
vn 0.0240 -0.0000 0.9997
vn 0.9997 -0.0000 -0.0240
vt 0.039998 0.319151
vt 0.312589 0.319151
vt 0.312589 0.046825
vt 0.039998 0.046825
vt 0.383916 0.042116
vt 0.383916 0.323861
vt 0.665936 0.323861
vt 0.665936 0.042116
vt 0.650311 0.351384
vt 0.650311 0.633129
vt 0.368291 0.633129
vt 0.368291 0.351384
vt 0.665936 0.041245
vt 0.665936 0.322990
vt 0.383916 0.322990
vt 0.383916 0.041245
vt 0.666913 0.041140
vt 0.666913 0.322885
vt 0.384893 0.322885
vt 0.384893 0.041140
vt 0.318280 0.041140
vt 0.318280 0.322885
vt 0.036260 0.322885
vt 0.036260 0.041140
vt 0.972577 0.716262
vt 0.972577 0.998007
vt 0.690557 0.998007
vt 0.690557 0.716262
vt 0.312909 0.356750
vt 0.312909 0.627763
vt 0.041631 0.627763
vt 0.041631 0.356750
vt 0.283124 0.720165
vt 0.283124 1.001909
vt 0.001104 1.001909
vt 0.001104 0.720165
vt 0.972577 0.351384
vt 0.972577 0.633129
vt 0.690557 0.633129
vt 0.690557 0.351384
vt 0.978436 0.039189
vt 0.978436 0.320934
vt 0.696416 0.320934
vt 0.696416 0.039189
vt 0.638592 0.718213
vt 0.638592 0.999958
vt 0.356573 0.999958
vt 0.356573 0.718213
s 0
usemtl Material.054
f 2/1/1 5/2/1 4/3/1 1/4/1
f 1/5/2 3/6/2 8/7/2 2/8/2
f 4/9/3 6/10/3 3/11/3 1/12/3
f 5/13/4 7/14/4 6/15/4 4/16/4
f 7/17/5 8/18/5 3/19/5 6/20/5
f 2/9/6 8/10/6 7/11/6 5/12/6
f 10/1/1 13/2/1 12/3/1 9/4/1
f 9/5/2 11/6/2 16/7/2 10/8/2
f 12/9/3 14/10/3 11/11/3 9/12/3
f 13/13/4 15/14/4 14/15/4 12/16/4
f 15/17/5 16/18/5 11/19/5 14/20/5
f 10/21/6 16/22/6 15/23/6 13/24/6
f 18/1/1 21/2/1 20/3/1 17/4/1
f 17/5/2 19/6/2 24/7/2 18/8/2
f 20/9/3 22/10/3 19/11/3 17/12/3
f 21/13/4 23/14/4 22/15/4 20/16/4
f 23/17/5 24/18/5 19/19/5 22/20/5
f 18/25/6 24/26/6 23/27/6 21/28/6
f 26/1/1 29/2/1 28/3/1 25/4/1
f 25/5/7 27/6/7 32/7/7 26/8/7
f 28/9/8 30/10/8 27/11/8 25/12/8
f 29/13/9 31/14/9 30/15/9 28/16/9
f 31/17/5 32/18/5 27/19/5 30/20/5
f 26/29/10 32/30/10 31/31/10 29/32/10
f 34/1/1 37/2/1 36/3/1 33/4/1
f 33/5/11 35/6/11 40/7/11 34/8/11
f 36/9/12 38/10/12 35/11/12 33/12/12
f 37/13/13 39/14/13 38/15/13 36/16/13
f 39/17/5 40/18/5 35/19/5 38/20/5
f 34/33/14 40/34/14 39/35/14 37/36/14
f 42/1/1 45/2/1 44/3/1 41/4/1
f 41/5/15 43/6/15 48/7/15 42/8/15
f 44/9/16 46/10/16 43/11/16 41/12/16
f 45/13/17 47/14/17 46/15/17 44/16/17
f 47/17/5 48/18/5 43/19/5 46/20/5
f 42/37/18 48/38/18 47/39/18 45/40/18
f 50/1/19 53/2/19 52/3/19 49/4/19
f 49/5/20 51/6/20 56/7/20 50/8/20
f 52/9/21 54/10/21 51/11/21 49/12/21
f 53/13/22 55/14/22 54/15/22 52/16/22
f 55/17/23 56/18/23 51/19/23 54/20/23
f 50/41/24 56/42/24 55/43/24 53/44/24
f 58/1/1 61/2/1 60/3/1 57/4/1
f 57/5/25 59/6/25 64/7/25 58/8/25
f 60/9/26 62/10/26 59/11/26 57/12/26
f 61/13/27 63/14/27 62/15/27 60/16/27
f 63/17/5 64/18/5 59/19/5 62/20/5
f 58/45/28 64/46/28 63/47/28 61/48/28
