# Blender 4.1.1
# www.blender.org
mtllib Counter.mtl
o Counter
v -2.235112 0.532131 -0.870850
v -2.235112 0.532131 -1.513080
v -2.235112 1.174632 -1.513080
v 0.200982 0.532131 -0.870850
v 0.200982 0.532131 -1.513080
v 0.200982 1.174632 -1.513080
v -2.750272 0.532131 -1.513080
v -2.750272 0.532131 -0.870850
v -2.750272 1.174632 -0.870850
v -2.750272 1.174632 -1.513080
v -2.235112 0.532131 1.042929
v -2.750272 0.532131 1.042929
v -2.750272 1.174632 1.042929
v -2.235112 0.532131 1.516337
v -2.235112 1.174632 1.516337
v -2.750272 0.532131 1.516337
v -2.750272 1.174632 1.516337
v 1.488182 0.532131 1.042929
v 1.488182 0.532131 1.516337
v 1.488182 1.174632 1.516337
v 2.104572 0.532131 1.042929
v 2.104572 1.174632 1.042929
v 2.104572 0.532131 1.516337
v 2.104572 1.174632 1.516337
v 1.488182 0.532131 -0.225593
v 2.104572 0.532131 -0.225593
v 2.104572 1.174632 -0.225593
v -2.259264 1.174632 -0.895002
v -2.235112 1.150479 -0.870850
v 0.200982 1.174632 -0.895002
v 0.200982 1.150479 -0.870850
v -2.259264 1.174632 1.067081
v -2.235112 1.150479 1.042929
v 1.512334 1.174632 1.067081
v 1.488182 1.150479 1.042929
v 1.488182 1.150479 -0.225593
v 1.512334 1.174632 -0.225593
vn 0.3015 -0.9045 0.3015
vn -0.0000 -0.7071 -0.7071
vn -0.0000 0.7071 -0.7071
vn 0.5774 -0.5774 0.5774
vn 0.5774 -0.5774 -0.5774
vn 0.5774 0.5774 -0.5774
vn -0.5774 -0.5774 -0.5774
vn -0.7071 -0.7071 -0.0000
vn -0.7071 0.7071 -0.0000
vn -0.5774 0.5774 -0.5774
vn 0.3015 -0.9045 -0.3015
vn -0.0000 -0.7071 0.7071
vn -0.0000 0.7071 0.7071
vn -0.5774 -0.5774 0.5774
vn -0.5774 0.5774 0.5774
vn -0.3015 -0.9045 -0.3015
vn 0.7071 -0.7071 -0.0000
vn 0.7071 0.7071 -0.0000
vn 0.5774 0.5774 0.5774
vn 0.1101 0.9878 0.1101
vn 0.5789 0.5743 0.5789
vn 0.6303 0.7173 0.2971
vn 0.6303 0.2971 0.7173
vn 0.1101 0.9878 -0.1101
vn 0.5789 0.5743 -0.5789
vn -0.1101 0.9878 -0.1101
vn -0.5789 0.5743 -0.5789
vn -0.7173 0.2971 -0.6303
vn -0.2971 0.7173 -0.6303
vt 0.625000 0.500000
vt 0.875000 0.500000
vt 0.877479 0.740598
vt 0.625000 0.740598
vt 0.375000 0.250000
vt 0.625000 0.250000
vt 0.375000 0.500000
vt 0.375000 1.000000
vt 0.615602 1.000000
vt 0.615602 1.000000
vt 0.875000 0.740598
vt 0.875000 0.750000
vt 0.125000 0.500000
vt 0.375000 0.750000
vt 0.125000 0.750000
vt 0.875000 0.750000
vt 0.875000 0.750000
vt 0.375000 0.000000
vt 0.625000 0.000000
vt 0.875000 0.750000
vt 0.875000 0.750000
vt 0.615602 0.750000
vt 0.615602 0.750000
vt 0.625000 1.000000
vt 0.875000 0.750000
vt 0.875000 0.750000
vt 0.625000 0.750000
s 1
usemtl Material.025
f 6/1/6 3/2/3 28/3/20 30/4/22
f 2/5/2 3/6/3 6/1/6 5/7/5
f 11/8/11 33/9/25 35/10/27 18/8/16
f 28/11/20 3/2/3 10/2/10 9/12/9
f 2/13/2 5/7/5 4/14/4 1/15/1
f 28/16/20 9/12/9 13/12/9 32/17/24
f 8/18/8 9/19/9 10/6/10 7/5/7
f 2/13/2 1/15/1 8/15/8 7/13/7
f 3/6/3 2/5/2 7/5/7 10/6/10
f 9/19/9 8/18/8 12/18/8 13/19/9
f 32/20/24 15/12/13 20/12/13 34/21/26
f 8/15/8 1/15/1 11/15/11 12/15/8
f 4/14/4 31/22/23 29/10/21 1/8/1
f 5/7/5 6/1/6 30/4/22 31/23/23 4/14/4
f 14/8/12 15/24/13 17/24/15 16/8/14
f 18/8/16 35/10/27 36/10/28 25/8/7
f 12/15/8 11/15/11 14/15/12 16/15/14
f 13/19/9 12/18/8 16/18/14 17/19/15
f 20/24/13 19/8/12 23/8/4 24/24/19
f 32/25/24 13/12/9 17/12/15 15/12/13
f 14/15/12 11/15/11 18/15/16 19/15/12
f 15/24/13 14/8/12 19/8/12 20/24/13
f 21/8/17 22/24/18 24/24/19 23/8/4
f 34/21/26 22/12/18 27/12/6 37/12/29
f 22/24/18 21/8/17 26/8/5 27/24/6
f 19/15/12 18/15/16 21/15/17 23/15/4
f 21/15/17 18/15/16 25/15/7 26/15/5
f 34/26/26 20/12/13 24/12/19 22/12/18
f 25/8/7 36/10/28 37/24/29 27/24/6 26/8/5
f 30/27/22 28/24/20 29/10/21 31/22/23
f 28/24/20 32/24/24 33/10/25 29/9/21
f 35/10/27 33/9/25 32/24/24 34/24/26
f 34/24/26 37/24/29 36/10/28 35/10/27
f 1/8/1 29/9/21 33/10/25 11/8/11
