# Blender 4.1.1
# www.blender.org
mtllib Mint Icecream.mtl
o Mint_Icecream
v -4.147315 1.603312 -6.423084
v -4.138118 1.566253 -6.448591
v -4.130094 1.553135 -6.458009
v -4.134042 1.545962 -6.457306
v -4.142175 1.615388 -6.417307
v -4.141669 1.581614 -6.439411
v -4.120378 1.552992 -6.456046
v -4.124290 1.546441 -6.456386
v -4.141032 1.615292 -6.419673
v -4.141606 1.603891 -6.429000
v -4.123268 1.566413 -6.449031
v -4.112442 1.552592 -6.453229
v -4.115670 1.546993 -6.454190
v -4.139268 1.615351 -6.421217
v -4.129438 1.581544 -6.441964
v -4.103848 1.553342 -6.448194
v -4.107883 1.546646 -6.449660
v -4.135233 1.628226 -6.417089
v -4.133135 1.603526 -6.431283
v -4.109765 1.566639 -6.442370
v -4.096608 1.553547 -6.442517
v -4.099443 1.547258 -6.445361
v -4.133683 1.614905 -6.424747
v -4.118326 1.581718 -6.439265
v -4.091155 1.553594 -6.434886
v -4.092807 1.547202 -6.438171
v -4.131489 1.614706 -6.424017
v -4.124717 1.603988 -6.429872
v -4.099146 1.566529 -6.432241
v -4.087379 1.553178 -6.426781
v -4.089275 1.546086 -6.429841
v -4.128747 1.614907 -6.423784
v -4.108514 1.581746 -6.432254
v -4.085048 1.553247 -6.418641
v -4.086321 1.546751 -6.422149
v -4.126358 1.615163 -6.422936
v -4.117314 1.603654 -6.426586
v -4.093569 1.566327 -6.418630
v -4.085546 1.553486 -6.408895
v -4.085436 1.547709 -6.413479
v -4.124209 1.615262 -6.421996
v -4.101538 1.581641 -6.421131
v -4.086756 1.553406 -6.399317
v -4.085687 1.546463 -6.404298
v -4.121422 1.613439 -6.420944
v -4.112709 1.603531 -6.421220
v -4.093490 1.566410 -6.402885
v -4.088809 1.553240 -6.391243
v -4.087848 1.546530 -6.394559
v -4.120982 1.614560 -6.418585
v -4.098887 1.581665 -6.408025
v -4.093169 1.553099 -6.383457
v -4.092037 1.546500 -6.386657
v -4.119705 1.614672 -6.416082
v -4.110995 1.603117 -6.412050
v -4.098523 1.566754 -6.389277
v -4.099917 1.553179 -6.376084
v -4.097725 1.545769 -6.378942
v -4.118741 1.615375 -6.413813
v -4.102472 1.581620 -6.397079
v -4.106903 1.553114 -6.370330
v -4.103945 1.546229 -6.373309
v -4.117992 1.615101 -6.411080
v -4.111383 1.603510 -6.404558
v -4.109743 1.566437 -6.377891
v -4.114691 1.553313 -6.366358
v -4.112265 1.546502 -6.369148
v -4.118899 1.615352 -6.409223
v -4.110156 1.581401 -6.386929
v -4.124879 1.552939 -6.364247
v -4.120476 1.545989 -6.366314
v -4.118780 1.614548 -6.405217
v -4.115580 1.603199 -6.396119
v -4.123782 1.567297 -6.372084
v -4.133148 1.552640 -6.363727
v -4.129608 1.546326 -6.365022
v -4.125983 1.618990 -6.406841
v -4.121727 1.581365 -6.380029
v -4.142066 1.553264 -6.365256
v -4.138096 1.546640 -6.365290
v -4.121857 1.614762 -6.402213
v -4.121929 1.602998 -6.392059
v -4.139250 1.566494 -6.372516
v -4.150896 1.553716 -6.368642
v -4.146641 1.547113 -6.367921
v -4.123884 1.614928 -6.400533
v -4.133288 1.581587 -6.379260
v -4.159163 1.554181 -6.373104
v -4.155167 1.547380 -6.371620
v -4.125977 1.615092 -6.398567
v -4.129035 1.603039 -6.389716
v -4.154025 1.565658 -6.378409
v -4.165503 1.553433 -6.378964
v -4.162343 1.546997 -6.376602
v -4.128541 1.614861 -6.398241
v -4.144912 1.581303 -6.381969
v -4.171160 1.553237 -6.386256
v -4.168595 1.546810 -6.383233
v -4.130529 1.615201 -6.397338
v -4.137877 1.603147 -6.390903
v -4.164422 1.566304 -6.389637
v -4.174861 1.553288 -6.394335
v -4.172976 1.547110 -6.390288
v -4.133121 1.618709 -6.403057
v -4.155140 1.581647 -6.389260
v -4.177168 1.553181 -6.403471
v -4.175820 1.546099 -6.398800
v -4.135193 1.614860 -6.398424
v -4.144495 1.603896 -6.394297
v -4.169635 1.566601 -6.403199
v -4.178063 1.553243 -6.412368
v -4.177237 1.546070 -6.406991
v -4.138800 1.614844 -6.399443
v -4.161201 1.581897 -6.400522
v -4.176927 1.553060 -6.421826
v -4.178054 1.546904 -6.418034
v -4.140514 1.615122 -6.400772
v -4.150661 1.603822 -6.400588
v -4.169479 1.566749 -6.418444
v -4.173495 1.552624 -6.430347
v -4.174379 1.546911 -6.426310
v -4.141763 1.615351 -6.403138
v -4.163432 1.581869 -6.412220
v -4.169023 1.553378 -6.438369
v -4.170407 1.546832 -6.435128
v -4.143394 1.615561 -6.405084
v -4.151814 1.602927 -6.408781
v -4.163274 1.566031 -6.432560
v -4.163095 1.552941 -6.445149
v -4.165771 1.546349 -6.442271
v -4.144025 1.615171 -6.407842
v -4.159275 1.581075 -6.423691
v -4.155530 1.552850 -6.450967
v -4.157973 1.546337 -6.448949
v -4.144770 1.615214 -6.410201
v -4.151409 1.603121 -6.416375
v -4.151906 1.566114 -6.443416
v -4.146606 1.553922 -6.454947
v -4.150659 1.546802 -6.452789
v -4.143991 1.614904 -6.412633
v -4.152365 1.581643 -6.433742
v -4.138439 1.553502 -6.456915
v -4.141604 1.546321 -6.455492
v -4.139297 1.628220 -6.412598
vn -0.7145 0.4413 -0.5429
vn -0.1619 0.5143 -0.8422
vn 0.0650 0.2697 -0.9607
vn -0.0886 -0.0889 -0.9921
vn -0.1903 0.4250 -0.8850
vn -0.3121 0.4315 -0.8464
vn 0.2406 0.2441 -0.9394
vn 0.1866 -0.1017 -0.9772
vn -0.5205 0.7762 -0.3559
vn -0.4656 0.4445 -0.7653
vn 0.1715 0.5043 -0.8463
vn 0.4301 0.2073 -0.8786
vn 0.3654 -0.0864 -0.9268
vn -0.5482 0.4806 -0.6844
vn 0.0165 0.4217 -0.9066
vn 0.5101 0.2521 -0.8223
vn 0.4895 -0.1127 -0.8647
vn -0.0146 0.9320 -0.3621
vn -0.0584 0.4590 -0.8865
vn 0.4867 0.5096 -0.7095
vn 0.6918 0.3293 -0.6427
vn 0.6134 -0.0003 -0.7898
vn 0.1389 0.5164 -0.8450
vn 0.3678 0.4228 -0.8282
vn 0.8330 0.2933 -0.4692
vn 0.8392 0.0153 -0.5436
vn 0.1860 0.5267 -0.8294
vn 0.2684 0.4510 -0.8512
vn 0.7131 0.5092 -0.4818
vn 0.9080 0.2606 -0.3282
vn 0.9185 -0.0659 -0.3898
vn 0.1558 0.4925 -0.8563
vn 0.6558 0.4234 -0.6251
vn 0.9626 0.2424 -0.1212
vn 0.9657 -0.0924 -0.2426
vn 0.3380 0.5800 -0.7412
vn 0.5501 0.4515 -0.7025
vn 0.8518 0.4975 -0.1643
vn 0.9489 0.3063 0.0764
vn 0.9987 -0.0509 0.0065
vn 0.2017 0.9432 -0.2640
vn 0.8521 0.4048 -0.3317
vn 0.9451 0.2736 0.1787
vn 0.9917 0.0230 0.1261
vn 0.6185 0.5949 -0.5134
vn 0.7871 0.4925 -0.3713
vn 0.8765 0.4607 0.1396
vn 0.8808 0.2644 0.3928
vn 0.9478 -0.0325 0.3172
vn 0.6643 0.6366 -0.3918
vn 0.8991 0.4355 0.0440
vn 0.8021 0.2140 0.5575
vn 0.8495 -0.1122 0.5155
vn 0.6847 0.6554 -0.3188
vn 0.8722 0.4859 -0.0551
vn 0.7400 0.4773 0.4739
vn 0.6556 0.2525 0.7117
vn 0.7317 -0.0854 0.6763
vn 0.2549 0.9365 -0.2408
vn 0.7874 0.4596 0.4108
vn 0.5261 0.1901 0.8289
vn 0.5849 -0.1135 0.8031
vn 0.6865 0.7271 -0.0003
vn 0.8535 0.4671 0.2311
vn 0.4884 0.4911 0.7213
vn 0.3091 0.2109 0.9274
vn 0.3986 -0.2195 0.8905
vn 0.6017 0.7911 0.1100
vn 0.6034 0.4378 0.6665
vn 0.1434 0.1765 0.9738
vn 0.2187 -0.2012 0.9548
vn 0.6727 0.6360 0.3781
vn 0.6198 0.5223 0.5858
vn 0.1686 0.4859 0.8576
vn -0.0525 0.1717 0.9837
vn 0.0527 -0.1968 0.9790
vn 0.4601 0.8276 0.3214
vn 0.2666 0.4531 0.8506
vn -0.2467 0.1953 0.9492
vn -0.1758 -0.1671 0.9701
vn 0.9440 0.1345 -0.3012
vn 0.3655 0.5035 0.7829
vn -0.1953 0.5054 0.8405
vn -0.4007 0.2174 0.8900
vn -0.3541 -0.1549 0.9223
vn 0.4286 0.7093 0.5597
vn -0.0727 0.4468 0.8917
vn -0.5634 0.2402 0.7905
vn -0.4826 -0.1293 0.8662
vn 0.2618 0.8645 0.4291
vn 0.0887 0.4753 0.8753
vn -0.4941 0.5103 0.7039
vn -0.7233 0.2571 0.6409
vn -0.6574 -0.1028 0.7465
vn 0.1961 0.7259 0.6593
vn -0.3705 0.4284 0.8241
vn -0.8233 0.2425 0.5133
vn -0.7919 -0.0699 0.6067
vn 0.0755 0.6457 0.7599
vn -0.2511 0.4926 0.8332
vn -0.7323 0.4923 0.4705
vn -0.9146 0.2647 0.3057
vn -0.9057 -0.0541 0.4204
vn 0.0133 0.7816 0.6236
vn -0.6621 0.4353 0.6101
vn -0.9558 0.2353 0.1763
vn -0.9680 -0.0553 0.2449
vn 0.7429 0.1405 0.6545
vn -0.5075 0.4657 0.7249
vn -0.8569 0.4877 0.1671
vn -0.9597 0.2809 -0.0075
vn -0.9914 -0.0590 0.1169
vn -0.2563 0.7867 0.5616
vn -0.8526 0.4231 0.3067
vn -0.9273 0.2574 -0.2718
vn -0.9873 -0.0013 -0.1586
vn -0.2930 0.8651 0.4072
vn -0.7857 0.4937 0.3727
vn -0.8485 0.4953 -0.1863
vn -0.8874 0.2022 -0.4143
vn -0.9139 -0.1160 -0.3890
vn -0.5871 0.6716 0.4520
vn -0.8922 0.4454 -0.0746
vn -0.7964 0.2611 -0.5456
vn -0.8685 -0.0917 -0.4872
vn -0.3619 0.9056 0.2211
vn -0.8763 0.4817 0.0053
vn -0.6913 0.5192 -0.5026
vn -0.6373 0.2863 -0.7155
vn -0.7482 -0.0420 -0.6622
vn -0.4772 0.8776 0.0462
vn -0.7926 0.4449 -0.4171
vn -0.5095 0.2437 -0.8253
vn -0.5702 -0.0599 -0.8193
vn -0.5008 0.8653 0.0207
vn -0.8538 0.4565 -0.2501
vn -0.4611 0.5238 -0.7162
vn -0.2907 0.2915 -0.9113
vn -0.3824 -0.0880 -0.9198
vn -0.8583 0.5007 -0.1124
vn -0.6134 0.4339 -0.6599
vn -0.1877 0.2597 -0.9473
vn -0.2530 -0.0980 -0.9625
vn -0.4686 0.8715 0.1444
vt 0.771445 0.612196
vt 0.804534 0.676151
vt 0.754754 0.739243
vt 0.742478 0.676229
vt 0.729132 0.741767
vt 0.693377 0.739282
vt 0.617057 0.549948
vt 0.585435 0.611709
vt 0.554313 0.549368
vt 0.586332 0.482658
vt 0.670962 0.683351
vt 0.660104 0.736695
vt 0.636647 0.739450
vt 0.645762 0.611339
vt 0.615821 0.676395
vt 0.617834 0.481924
vt 0.523448 0.612111
vt 0.492579 0.549415
vt 0.524275 0.481665
vt 0.693972 0.437500
vt 0.710926 0.481982
vt 0.680657 0.481320
vt 0.662282 0.437500
vt 0.648895 0.482492
vt 0.575218 0.724845
vt 0.553332 0.676742
vt 0.554922 0.482949
vt 0.459502 0.611931
vt 0.429682 0.549671
vt 0.460948 0.483141
vt 0.630766 0.437500
vt 0.599250 0.437500
vt 0.509953 0.740767
vt 0.491222 0.676425
vt 0.395794 0.611048
vt 0.367268 0.549728
vt 0.399309 0.482820
vt 0.568804 0.437500
vt 0.492862 0.481894
vt 0.538101 0.437500
vt 0.438452 0.740847
vt 0.431694 0.676390
vt 0.139441 0.740117
vt 0.197733 0.742366
vt 0.006293 0.736725
vt 0.071622 0.740928
vt 0.506244 0.437500
vt 0.430171 0.482532
vt 0.333863 0.611934
vt 0.304605 0.549690
vt 0.336225 0.482705
vt 0.474681 0.437500
vt 0.385889 0.740997
vt 0.366069 0.676473
vt 0.442918 0.437500
vt 0.367549 0.483197
vt 0.273615 0.611674
vt 0.242052 0.550200
vt 0.273432 0.482905
vt 0.412650 0.437500
vt 0.320732 0.740826
vt 0.295337 0.682732
vt 0.351785 0.739736
vt 0.263333 0.742152
vt 0.380755 0.437500
vt 0.305686 0.483043
vt 0.197172 0.613936
vt 0.179768 0.549420
vt 0.211561 0.482319
vt 0.350590 0.437500
vt 0.229301 0.682912
vt 0.318376 0.437500
vt 0.242837 0.482003
vt 0.146932 0.611873
vt 0.115606 0.548819
vt 0.148664 0.482876
vt 0.171629 0.682872
vt 0.287786 0.437500
vt 0.255882 0.437500
vt 0.180341 0.482373
vt 0.086212 0.612084
vt 0.053867 0.549821
vt 0.086339 0.482212
vt 0.117044 0.676172
vt 0.225411 0.437500
vt 0.193586 0.437500
vt 0.117812 0.482583
vt 0.023537 0.612152
vt 0.992231 0.556943
vt 0.023723 0.483222
vt 0.052796 0.676395
vt 0.162231 0.437500
vt 0.131404 0.437500
vt 0.055377 0.482345
vt 0.959397 0.611727
vt 0.929388 0.550003
vt 0.961376 0.481820
vt 0.543482 0.737926
vt 0.607376 0.741676
vt 0.099774 0.437500
vt 0.989229 0.682894
vt 0.000000 0.680737
vt 0.069365 0.437500
vt 0.994183 0.488142
vt 0.000000 0.555070
vt 0.896276 0.611700
vt 0.866309 0.549332
vt 0.898799 0.482539
vt 0.037247 0.437500
vt 0.940557 0.737054
vt 0.929492 0.676277
vt 0.007038 0.437500
vt 0.930322 0.481631
vt 0.834899 0.611909
vt 0.803307 0.548867
vt 0.836713 0.482185
vt 0.973504 0.437500
vt 0.000000 0.490527
vt 0.881756 0.741399
vt 0.866587 0.676157
vt 0.473000 0.740849
vt 0.867823 0.482563
vt 0.943613 0.437500
vt 0.911905 0.437500
vt 0.825391 0.740445
vt 0.743219 0.482927
vt 0.773623 0.483365
vt 0.741375 0.549579
vt 0.804870 0.483101
vt 0.881653 0.437500
vt 0.849019 0.437500
vt 0.709367 0.611906
vt 0.787005 0.437500
vt 0.819735 0.437500
vt 0.679818 0.549712
vt 0.724061 0.437500
vt 0.757532 0.437500
vt 0.420515 0.721088
vt 0.284386 0.737292
vt 0.223014 0.730075
vt 0.166500 0.738678
vt 0.103872 0.740192
vt 0.044660 0.737620
vt 0.000000 0.737543
vt 0.983516 0.740772
vt 0.916777 0.739127
vt 0.857600 0.740150
vt 0.793764 0.738627
s 1
usemtl Material.052
f 141/1/141 136/2/136 140/3/140 1/4/1
f 1/4/1 144/5/144 5/6/5
f 20/7/20 24/8/24 29/9/29 25/10/25
f 10/11/10 9/12/9 14/13/14
f 15/14/15 19/15/19 24/8/24 20/7/20
f 21/16/21 20/7/20 25/10/25
f 29/9/29 33/17/33 38/18/38 34/19/34
f 13/20/13 7/21/7 12/22/12
f 17/23/17 12/22/12 16/24/16
f 19/15/19 23/25/23 28/26/28 24/8/24
f 24/8/24 28/26/28 33/17/33 29/9/29
f 30/27/30 29/9/29 34/19/34
f 38/18/38 42/28/42 47/29/47 43/30/43
f 22/31/22 16/24/16 21/16/21
f 26/32/26 21/16/21 25/10/25
f 28/26/28 32/33/32 37/34/37 33/17/33
f 33/17/33 37/34/37 42/28/42 38/18/38
f 47/29/47 51/35/51 56/36/56 52/37/52
f 31/38/31 25/10/25 30/27/30
f 39/39/39 38/18/38 43/30/43
f 35/40/35 30/27/30 34/19/34
f 37/34/37 41/41/41 46/42/46 42/28/42
f 42/28/42 46/42/46 51/35/51 47/29/47
f 86/43/86 77/44/77 104/45/104
f 95/46/95 86/43/86 104/45/104
f 40/47/40 34/19/34 39/39/39
f 48/48/48 47/29/47 52/37/52
f 56/36/56 60/49/60 65/50/65 61/51/61
f 44/52/44 39/39/39 43/30/43
f 46/42/46 50/53/50 55/54/55 51/35/51
f 51/35/51 55/54/55 60/49/60 56/36/56
f 49/55/49 43/30/43 48/48/48
f 57/56/57 56/36/56 61/51/61
f 65/50/65 69/57/69 74/58/74 70/59/70
f 53/60/53 48/48/48 52/37/52
f 55/54/55 59/61/59 64/62/64 60/49/60
f 60/49/60 64/62/64 69/57/69 65/50/65
f 54/63/54 77/44/77 68/64/68
f 58/65/58 52/37/52 57/56/57
f 66/66/66 65/50/65 70/59/70
f 74/58/74 78/67/78 83/68/83 79/69/79
f 62/70/62 57/56/57 61/51/61
f 64/62/64 68/64/68 73/71/73 69/57/69
f 69/57/69 73/71/73 78/67/78 74/58/74
f 67/72/67 61/51/61 66/66/66
f 75/73/75 74/58/74 79/69/79
f 83/68/83 87/74/87 92/75/92 88/76/88
f 73/71/73 77/44/77 82/77/82 78/67/78
f 78/67/78 82/77/82 87/74/87 83/68/83
f 71/78/71 66/66/66 70/59/70
f 76/79/76 70/59/70 75/73/75
f 84/80/84 83/68/83 88/76/88
f 92/75/92 96/81/96 101/82/101 97/83/97
f 87/74/87 91/84/91 96/81/96 92/75/92
f 80/85/80 75/73/75 79/69/79
f 82/77/82 86/43/86 91/84/91 87/74/87
f 85/86/85 79/69/79 84/80/84
f 93/87/93 92/75/92 97/83/97
f 101/82/101 105/88/105 110/89/110 106/90/106
f 96/81/96 100/91/100 105/88/105 101/82/101
f 89/92/89 84/80/84 88/76/88
f 91/84/91 95/46/95 100/91/100 96/81/96
f 94/93/94 88/76/88 93/87/93
f 102/94/102 101/82/101 106/90/106
f 110/89/110 114/95/114 119/96/119 115/97/115
f 32/33/32 27/98/27 18/99/18
f 98/100/98 93/87/93 97/83/97
f 100/91/100 104/45/104 109/101/109 105/88/105
f 105/88/105 109/102/109 114/95/114 110/89/110
f 103/103/103 97/83/97 102/94/102
f 111/104/111 110/105/110 115/97/115
f 119/96/119 123/106/123 128/107/128 124/108/124
f 107/109/107 102/94/102 106/90/106
f 109/101/109 113/110/113 118/111/118 114/95/114
f 114/95/114 118/111/118 123/106/123 119/96/119
f 112/112/112 106/90/106 111/104/111
f 120/113/120 119/96/119 124/108/124
f 128/107/128 132/114/132 137/115/137 133/116/133
f 116/117/116 111/118/111 115/97/115
f 118/111/118 122/119/122 127/120/127 123/106/123
f 123/106/123 127/120/127 132/114/132 128/107/128
f 36/121/36 18/99/18 50/53/50
f 129/122/129 128/107/128 133/116/133
f 27/98/27 23/25/23 18/99/18
f 121/123/121 115/97/115 120/113/120
f 125/124/125 120/113/120 124/108/124
f 127/120/127 131/125/131 136/2/136 132/114/132
f 132/114/132 136/2/136 141/1/141 137/115/137
f 3/126/3 142/127/142 2/128/2
f 142/127/142 138/129/138 137/115/137
f 130/130/130 124/108/124 129/122/129
f 134/131/134 129/122/129 133/116/133
f 6/132/6 2/128/2 141/1/141 1/4/1
f 143/133/143 138/129/138 142/127/142
f 139/134/139 133/116/133 138/129/138
f 6/132/6 10/11/10 15/14/15 11/135/11
f 36/121/36 32/33/32 18/99/18
f 5/6/5 9/12/9 10/11/10
f 142/127/142 137/115/137 141/1/141 2/128/2
f 12/22/12 11/135/11 16/24/16
f 3/126/3 2/128/2 7/21/7
f 8/136/8 4/137/4 3/126/3
f 19/15/19 18/99/18 23/25/23
f 41/41/41 36/121/36 50/53/50
f 14/13/14 18/99/18 19/15/19
f 13/20/13 8/136/8 7/21/7
f 21/16/21 16/24/16 20/7/20
f 28/26/28 27/98/27 32/33/32
f 50/53/50 45/138/45 41/41/41
f 17/23/17 13/20/13 12/22/12
f 23/25/23 27/98/27 28/26/28
f 22/31/22 17/23/17 16/24/16
f 37/34/37 36/121/36 41/41/41
f 30/27/30 25/10/25 29/9/29
f 26/32/26 22/31/22 21/16/21
f 32/33/32 36/121/36 37/34/37
f 31/38/31 26/32/26 25/10/25
f 46/42/46 45/138/45 50/53/50
f 39/39/39 34/19/34 38/18/38
f 35/40/35 31/38/31 30/27/30
f 41/41/41 45/138/45 46/42/46
f 40/47/40 35/40/35 34/19/34
f 55/54/55 54/63/54 59/61/59
f 77/44/77 54/63/54 18/99/18
f 48/48/48 43/30/43 47/29/47
f 44/52/44 40/47/40 39/39/39
f 50/53/50 54/63/54 55/54/55
f 49/55/49 44/52/44 43/30/43
f 64/62/64 63/139/63 68/64/68
f 57/56/57 52/37/52 56/36/56
f 53/60/53 49/55/49 48/48/48
f 59/61/59 63/139/63 64/62/64
f 58/65/58 53/60/53 52/37/52
f 73/71/73 72/140/72 77/44/77
f 66/66/66 61/51/61 65/50/65
f 62/70/62 58/65/58 57/56/57
f 68/64/68 72/140/72 73/71/73
f 54/63/54 50/53/50 18/99/18
f 67/72/67 62/70/62 61/51/61
f 82/77/82 81/141/81 86/43/86
f 75/73/75 70/59/70 74/58/74
f 71/78/71 67/72/67 66/66/66
f 77/44/77 81/141/81 82/77/82
f 76/79/76 71/78/71 70/59/70
f 84/80/84 79/69/79 83/68/83
f 91/84/91 90/142/90 95/46/95
f 80/85/80 76/79/76 75/73/75
f 86/43/86 90/142/90 91/84/91
f 85/86/85 80/85/80 79/69/79
f 93/87/93 88/76/88 92/75/92
f 100/91/100 99/143/99 104/45/104
f 59/61/59 54/63/54 68/64/68
f 89/92/89 85/86/85 84/80/84
f 95/46/95 99/143/99 100/91/100
f 94/93/94 89/92/89 88/76/88
f 102/94/102 97/83/97 101/82/101
f 109/101/109 108/144/108 113/110/113
f 68/64/68 63/139/63 59/61/59
f 98/100/98 94/93/94 93/87/93
f 104/45/104 108/145/108 109/101/109
f 103/103/103 98/100/98 97/83/97
f 118/111/118 117/146/117 122/119/122
f 111/104/111 106/90/106 110/89/110
f 107/109/107 103/103/103 102/94/102
f 113/110/113 117/146/117 118/111/118
f 112/112/112 107/109/107 106/90/106
f 77/44/77 72/140/72 68/64/68
f 120/113/120 115/97/115 119/96/119
f 127/120/127 126/147/126 131/125/131
f 116/117/116 112/112/112 111/104/111
f 122/119/122 126/147/126 127/120/127
f 121/123/121 116/117/116 115/97/115
f 144/5/144 1/4/1 140/3/140
f 129/122/129 124/108/124 128/107/128
f 125/124/125 121/123/121 120/113/120
f 131/125/131 135/148/135 136/2/136
f 130/130/130 125/124/125 124/108/124
f 138/129/138 133/116/133 137/115/137
f 86/43/86 81/141/81 77/44/77
f 134/131/134 130/130/130 129/122/129
f 136/2/136 135/148/135 140/3/140
f 139/134/139 134/131/134 133/116/133
f 4/137/4 143/133/143 142/127/142
f 143/133/143 139/134/139 138/129/138
f 11/135/11 7/21/7 2/128/2 6/132/6
f 8/136/8 3/126/3 7/21/7
f 95/46/95 90/142/90 86/43/86
f 10/11/10 6/132/6 1/4/1 5/6/5
f 3/126/3 4/137/4 142/127/142
f 10/11/10 14/13/14 19/15/19 15/14/15
f 104/45/104 99/143/99 95/46/95
f 108/145/108 104/45/104 122/119/122
f 11/135/11 15/14/15 20/7/20 16/24/16
f 113/110/113 108/145/108 122/119/122
f 122/119/122 117/146/117 113/110/113
f 131/125/131 126/147/126 122/119/122
f 140/3/140 135/148/135 131/125/131
f 104/45/104 144/5/144 122/119/122
f 144/5/144 140/3/140 122/119/122
f 5/6/5 144/5/144 18/99/18
f 12/22/12 7/21/7 11/135/11
f 77/44/77 18/99/18 144/5/144 104/45/104
f 18/99/18 14/13/14 5/6/5
f 14/13/14 9/12/9 5/6/5
f 131/125/131 122/119/122 140/3/140
