# Blender 4.1.1
# www.blender.org
mtllib Icecream Cone.mtl
o Cone
v -3.157270 1.552542 -6.457145
v -3.166279 1.552542 -6.456257
v -3.174941 1.552542 -6.453630
v -3.182924 1.552542 -6.449363
v -3.189921 1.552542 -6.443620
v -3.195663 1.552542 -6.436623
v -3.199930 1.552542 -6.428640
v -3.202558 1.552542 -6.419978
v -3.203445 1.552542 -6.410970
v -3.202558 1.552542 -6.401961
v -3.199930 1.552542 -6.393300
v -3.195663 1.552542 -6.385316
v -3.189921 1.552542 -6.378319
v -3.182924 1.552542 -6.372577
v -3.174941 1.552542 -6.368309
v -3.166279 1.552542 -6.365682
v -3.157270 1.552542 -6.364795
v -3.148262 1.552542 -6.365682
v -3.139600 1.552542 -6.368309
v -3.131617 1.552542 -6.372577
v -3.124620 1.552542 -6.378319
v -3.118877 1.552542 -6.385316
v -3.114610 1.552542 -6.393300
v -3.111983 1.552542 -6.401961
v -3.111095 1.552542 -6.410970
v -3.111983 1.552542 -6.419978
v -3.114610 1.552542 -6.428640
v -3.118877 1.552542 -6.436623
v -3.124620 1.552542 -6.443620
v -3.131617 1.552542 -6.449363
v -3.139600 1.552542 -6.453630
v -3.148262 1.552542 -6.456257
v -3.157270 1.332493 -6.410970
v -3.157270 1.552542 -6.460444
v -3.166922 1.552542 -6.459493
v -3.176203 1.552542 -6.456678
v -3.184757 1.552542 -6.452106
v -3.192254 1.552542 -6.445953
v -3.198406 1.552542 -6.438456
v -3.202978 1.552542 -6.429903
v -3.205794 1.552542 -6.420622
v -3.206744 1.552542 -6.410970
v -3.205794 1.552542 -6.401318
v -3.202978 1.552542 -6.392037
v -3.198406 1.552542 -6.383483
v -3.192254 1.552542 -6.375986
v -3.184757 1.552542 -6.369833
v -3.176203 1.552542 -6.365262
v -3.166922 1.552542 -6.362446
v -3.157270 1.552542 -6.361495
v -3.147618 1.552542 -6.362446
v -3.138337 1.552542 -6.365262
v -3.129784 1.552542 -6.369833
v -3.122287 1.552542 -6.375986
v -3.116134 1.552542 -6.383483
v -3.111562 1.552542 -6.392037
v -3.108747 1.552542 -6.401318
v -3.107796 1.552542 -6.410970
v -3.108747 1.552542 -6.420622
v -3.111562 1.552542 -6.429903
v -3.116134 1.552542 -6.438456
v -3.122287 1.552542 -6.445953
v -3.129784 1.552542 -6.452106
v -3.138337 1.552542 -6.456678
v -3.147618 1.552542 -6.459493
v -3.157270 1.424583 -6.420808
v -3.159189 1.424583 -6.420619
v -3.161035 1.424583 -6.420059
v -3.162736 1.424583 -6.419150
v -3.164227 1.424583 -6.417926
v -3.165450 1.424583 -6.416436
v -3.166359 1.424583 -6.414735
v -3.166919 1.424583 -6.412889
v -3.167108 1.424583 -6.410970
v -3.166919 1.424583 -6.409050
v -3.166359 1.424583 -6.407205
v -3.165450 1.424583 -6.405504
v -3.164227 1.424583 -6.404013
v -3.162736 1.424583 -6.402790
v -3.161035 1.424583 -6.401880
v -3.159189 1.424583 -6.401320
v -3.157270 1.424583 -6.401132
v -3.155351 1.424583 -6.401320
v -3.153505 1.424583 -6.401880
v -3.151804 1.424583 -6.402790
v -3.150313 1.424583 -6.404013
v -3.149090 1.424583 -6.405504
v -3.148181 1.424583 -6.407205
v -3.147621 1.424583 -6.409050
v -3.147432 1.424583 -6.410970
v -3.147621 1.424583 -6.412889
v -3.148181 1.424583 -6.414735
v -3.149090 1.424583 -6.416436
v -3.150313 1.424583 -6.417926
v -3.151804 1.424583 -6.419150
v -3.153505 1.424583 -6.420059
v -3.155351 1.424583 -6.420619
vn -0.0000 -0.2194 -0.9756
vn -0.0000 -1.0000 -0.0000
vn -0.1903 -0.2194 -0.9569
vn -0.3734 -0.2194 -0.9014
vn -0.5420 -0.2194 -0.8112
vn -0.6899 -0.2194 -0.6899
vn -0.8112 -0.2194 -0.5420
vn -0.9014 -0.2194 -0.3734
vn -0.9569 -0.2194 -0.1903
vn -0.9756 -0.2194 -0.0000
vn -0.9569 -0.2194 0.1903
vn -0.9014 -0.2194 0.3734
vn -0.8112 -0.2194 0.5420
vn -0.6899 -0.2194 0.6899
vn -0.5420 -0.2194 0.8112
vn -0.3734 -0.2194 0.9014
vn -0.1903 -0.2194 0.9569
vn -0.0000 -0.2194 0.9756
vn 0.1903 -0.2194 0.9569
vn 0.3734 -0.2194 0.9014
vn 0.5420 -0.2194 0.8112
vn 0.6899 -0.2194 0.6899
vn 0.8112 -0.2194 0.5420
vn 0.9014 -0.2194 0.3734
vn 0.9569 -0.2194 0.1903
vn 0.9756 -0.2194 -0.0000
vn 0.9569 -0.2194 -0.1903
vn 0.9014 -0.2194 -0.3734
vn 0.8112 -0.2194 -0.5420
vn 0.6899 -0.2194 -0.6899
vn 0.5420 -0.2194 -0.8112
vn 0.3734 -0.2194 -0.9014
vn -0.7998 0.2732 0.5344
vn -0.6802 0.2732 0.6802
vn 0.1903 -0.2194 -0.9569
vn -0.0000 1.0000 -0.0000
vn 0.3681 0.2732 -0.8887
vn 0.1877 0.2732 -0.9435
vn 0.1877 0.2732 0.9435
vn 0.3681 0.2732 0.8887
vn -0.5344 0.2732 0.7998
vn -0.0000 0.2732 -0.9620
vn 0.5344 0.2732 0.7998
vn -0.3681 0.2732 0.8887
vn -0.1877 0.2732 -0.9435
vn 0.6802 0.2732 0.6802
vn -0.1877 0.2732 0.9435
vn -0.3681 0.2732 -0.8887
vn 0.7998 0.2732 0.5344
vn -0.0000 0.2732 0.9620
vn -0.5344 0.2732 -0.7998
vn 0.8887 0.2732 0.3681
vn -0.6802 0.2732 -0.6802
vn 0.9435 0.2732 0.1877
vn -0.7998 0.2732 -0.5344
vn 0.9620 0.2732 -0.0000
vn -0.8887 0.2732 -0.3681
vn 0.9435 0.2732 -0.1877
vn -0.9435 0.2732 -0.1877
vn 0.8887 0.2732 -0.3681
vn -0.9620 0.2732 -0.0000
vn 0.7998 0.2732 -0.5344
vn -0.9435 0.2732 0.1877
vn 0.6802 0.2732 -0.6802
vn -0.8887 0.2732 0.3681
vn 0.5344 0.2732 -0.7998
vt 0.250000 0.490000
vt 0.250000 0.250000
vt 0.296822 0.485388
vt 0.341844 0.471731
vt 0.383337 0.449553
vt 0.419706 0.419706
vt 0.449553 0.383337
vt 0.471731 0.341844
vt 0.485388 0.296822
vt 0.490000 0.250000
vt 0.485388 0.203178
vt 0.471731 0.158156
vt 0.449553 0.116663
vt 0.419706 0.080294
vt 0.383337 0.050447
vt 0.341844 0.028269
vt 0.296822 0.014612
vt 0.250000 0.010000
vt 0.203178 0.014612
vt 0.158156 0.028269
vt 0.116663 0.050447
vt 0.080294 0.080294
vt 0.050447 0.116663
vt 0.028269 0.158156
vt 0.014612 0.203178
vt 0.010000 0.250000
vt 0.014612 0.296822
vt 0.028269 0.341844
vt 0.050447 0.383337
vt 0.080294 0.419706
vt 0.116663 0.449553
vt 0.158156 0.471731
vt 0.577874 0.365011
vt 0.603619 0.396381
vt 0.203178 0.485388
vt 0.790387 0.453037
vt 0.750000 0.457015
vt 0.750000 0.490000
vt 0.796822 0.485388
vt 0.829221 0.441256
vt 0.841844 0.471731
vt 0.865011 0.422126
vt 0.883337 0.449553
vt 0.896381 0.396381
vt 0.919706 0.419706
vt 0.922126 0.365011
vt 0.949553 0.383337
vt 0.941256 0.329221
vt 0.971731 0.341844
vt 0.953037 0.290386
vt 0.985388 0.296822
vt 0.957015 0.250000
vt 0.990000 0.250000
vt 0.953037 0.209613
vt 0.985388 0.203178
vt 0.941256 0.170779
vt 0.971731 0.158156
vt 0.922126 0.134989
vt 0.949553 0.116663
vt 0.896381 0.103619
vt 0.919706 0.080294
vt 0.865011 0.077874
vt 0.883337 0.050447
vt 0.829221 0.058744
vt 0.841844 0.028269
vt 0.790387 0.046963
vt 0.796822 0.014612
vt 0.750000 0.042985
vt 0.750000 0.010000
vt 0.709613 0.046963
vt 0.703178 0.014612
vt 0.670779 0.058744
vt 0.658156 0.028269
vt 0.634989 0.077874
vt 0.616663 0.050447
vt 0.603619 0.103619
vt 0.580294 0.080294
vt 0.577874 0.134989
vt 0.550447 0.116663
vt 0.558744 0.170779
vt 0.528269 0.158156
vt 0.546963 0.209614
vt 0.514612 0.203178
vt 0.542985 0.250000
vt 0.510000 0.250000
vt 0.546963 0.290387
vt 0.514612 0.296822
vt 0.558743 0.329221
vt 0.528269 0.341844
vt 0.550447 0.383337
vt 0.580294 0.419706
vt 0.634989 0.422126
vt 0.616663 0.449553
vt 0.670779 0.441256
vt 0.658156 0.471731
vt 0.709613 0.453037
vt 0.703178 0.485388
s 1
usemtl Material.006
f 34/1/1 33/2/2 35/3/3
f 35/3/3 33/2/2 36/4/4
f 36/4/4 33/2/2 37/5/5
f 37/5/5 33/2/2 38/6/6
f 38/6/6 33/2/2 39/7/7
f 39/7/7 33/2/2 40/8/8
f 40/8/8 33/2/2 41/9/9
f 41/9/9 33/2/2 42/10/10
f 42/10/10 33/2/2 43/11/11
f 43/11/11 33/2/2 44/12/12
f 44/12/12 33/2/2 45/13/13
f 45/13/13 33/2/2 46/14/14
f 46/14/14 33/2/2 47/15/15
f 47/15/15 33/2/2 48/16/16
f 48/16/16 33/2/2 49/17/17
f 49/17/17 33/2/2 50/18/18
f 50/18/18 33/2/2 51/19/19
f 51/19/19 33/2/2 52/20/20
f 52/20/20 33/2/2 53/21/21
f 53/21/21 33/2/2 54/22/22
f 54/22/22 33/2/2 55/23/23
f 55/23/23 33/2/2 56/24/24
f 56/24/24 33/2/2 57/25/25
f 57/25/25 33/2/2 58/26/26
f 58/26/26 33/2/2 59/27/27
f 59/27/27 33/2/2 60/28/28
f 60/28/28 33/2/2 61/29/29
f 61/29/29 33/2/2 62/30/30
f 62/30/30 33/2/2 63/31/31
f 63/31/31 33/2/2 64/32/32
f 28/33/33 29/34/34 94/34/34 93/33/33
f 64/32/32 33/2/2 65/35/35
f 65/35/35 33/2/2 34/1/1
f 2/36/36 1/37/36 34/38/36 35/39/36
f 3/40/36 2/36/36 35/39/36 36/41/36
f 4/42/36 3/40/36 36/41/36 37/43/36
f 5/44/36 4/42/36 37/43/36 38/45/36
f 6/46/36 5/44/36 38/45/36 39/47/36
f 7/48/36 6/46/36 39/47/36 40/49/36
f 8/50/36 7/48/36 40/49/36 41/51/36
f 9/52/36 8/50/36 41/51/36 42/53/36
f 10/54/36 9/52/36 42/53/36 43/55/36
f 11/56/36 10/54/36 43/55/36 44/57/36
f 12/58/36 11/56/36 44/57/36 45/59/36
f 13/60/36 12/58/36 45/59/36 46/61/36
f 14/62/36 13/60/36 46/61/36 47/63/36
f 15/64/36 14/62/36 47/63/36 48/65/36
f 16/66/36 15/64/36 48/65/36 49/67/36
f 17/68/36 16/66/36 49/67/36 50/69/36
f 18/70/36 17/68/36 50/69/36 51/71/36
f 19/72/36 18/70/36 51/71/36 52/73/36
f 20/74/36 19/72/36 52/73/36 53/75/36
f 21/76/36 20/74/36 53/75/36 54/77/36
f 22/78/36 21/76/36 54/77/36 55/79/36
f 23/80/36 22/78/36 55/79/36 56/81/36
f 24/82/36 23/80/36 56/81/36 57/83/36
f 25/84/36 24/82/36 57/83/36 58/85/36
f 26/86/36 25/84/36 58/85/36 59/87/36
f 27/88/36 26/86/36 59/87/36 60/89/36
f 28/33/36 27/88/36 60/89/36 61/90/36
f 29/34/36 28/33/36 61/90/36 62/91/36
f 30/92/36 29/34/36 62/91/36 63/93/36
f 31/94/36 30/92/36 63/93/36 64/95/36
f 32/96/36 31/94/36 64/95/36 65/97/36
f 1/37/36 32/96/36 65/97/36 34/38/36
f 66/37/36 67/36/36 68/40/36 69/42/36 70/44/36 71/46/36 72/48/36 73/50/36 74/52/36 75/54/36 76/56/36 77/58/36 78/60/36 79/62/36 80/64/36 81/66/36 82/68/36 83/70/36 84/72/36 85/74/36 86/76/36 87/78/36 88/80/36 89/82/36 90/84/36 91/86/36 92/88/36 93/33/36 94/34/36 95/92/36 96/94/36 97/96/36
f 15/64/37 16/66/38 81/66/38 80/64/37
f 2/36/39 3/40/40 68/40/40 67/36/39
f 29/34/34 30/92/41 95/92/41 94/34/34
f 16/66/38 17/68/42 82/68/42 81/66/38
f 3/40/40 4/42/43 69/42/43 68/40/40
f 30/92/41 31/94/44 96/94/44 95/92/41
f 17/68/42 18/70/45 83/70/45 82/68/42
f 4/42/43 5/44/46 70/44/46 69/42/43
f 31/94/44 32/96/47 97/96/47 96/94/44
f 18/70/45 19/72/48 84/72/48 83/70/45
f 5/44/46 6/46/49 71/46/49 70/44/46
f 32/96/47 1/37/50 66/37/50 97/96/47
f 19/72/48 20/74/51 85/74/51 84/72/48
f 6/46/49 7/48/52 72/48/52 71/46/49
f 20/74/51 21/76/53 86/76/53 85/74/51
f 7/48/52 8/50/54 73/50/54 72/48/52
f 21/76/53 22/78/55 87/78/55 86/76/53
f 8/50/54 9/52/56 74/52/56 73/50/54
f 22/78/55 23/80/57 88/80/57 87/78/55
f 9/52/56 10/54/58 75/54/58 74/52/56
f 23/80/57 24/82/59 89/82/59 88/80/57
f 10/54/58 11/56/60 76/56/60 75/54/58
f 24/82/59 25/84/61 90/84/61 89/82/59
f 11/56/60 12/58/62 77/58/62 76/56/60
f 25/84/61 26/86/63 91/86/63 90/84/61
f 12/58/62 13/60/64 78/60/64 77/58/62
f 26/86/63 27/88/65 92/88/65 91/86/63
f 13/60/64 14/62/66 79/62/66 78/60/64
f 27/88/65 28/33/33 93/33/33 92/88/65
f 14/62/66 15/64/37 80/64/37 79/62/66
f 1/37/50 2/36/39 67/36/39 66/37/50
