# Blender 4.1.1
# www.blender.org
mtllib Scooper.mtl
o Scooper
v 0.072646 1.206187 -1.315031
v 0.050806 1.206187 -1.310701
v 0.058915 1.206187 -1.299363
v 0.058915 1.206187 -1.285348
v 0.049684 1.206187 -1.274010
v 0.065837 1.206187 -1.269679
v 0.084652 1.206187 -1.274010
v 0.092072 1.206187 -1.285348
v 0.092072 1.206187 -1.299363
v 0.084652 1.206187 -1.310701
v 0.045260 1.211792 -1.314895
v 0.073000 1.211792 -1.320216
v 0.051765 1.211792 -1.300965
v 0.051765 1.211792 -1.283746
v 0.043995 1.211792 -1.269816
v 0.073000 1.211792 -1.264495
v 0.089644 1.211792 -1.269816
v 0.102586 1.211792 -1.283746
v 0.102586 1.211792 -1.300965
v 0.089644 1.211792 -1.314895
v 0.042843 1.228207 -1.318168
v 0.073000 1.228207 -1.324261
v 0.047855 1.228207 -1.302215
v 0.047855 1.228207 -1.282496
v 0.041578 1.228207 -1.266543
v 0.073000 1.228207 -1.260450
v 0.092060 1.228207 -1.266543
v 0.103298 1.228207 -1.282496
v 0.103298 1.228207 -1.302215
v 0.092060 1.228207 -1.318168
v 0.070636 1.202312 -1.298513
v 0.064705 1.202312 -1.297337
v 0.065360 1.202312 -1.294258
v 0.065360 1.202312 -1.290453
v 0.064400 1.202312 -1.287374
v 0.068787 1.202312 -1.286198
v 0.073896 1.202312 -1.287374
v 0.075911 1.202312 -1.290453
v 0.075911 1.202312 -1.294258
v 0.073896 1.202312 -1.297337
v 0.107169 1.218698 -1.299856
v 0.107169 1.218698 -1.284854
v 0.107168 1.228207 -1.300946
v 0.107168 1.228207 -1.283765
v 0.194668 1.222860 -1.298850
v 0.194668 1.222860 -1.285861
v 0.194665 1.228261 -1.300946
v 0.194665 1.228261 -1.283765
v 0.199670 1.223968 -1.296200
v 0.199670 1.223968 -1.288511
v 0.199668 1.227166 -1.297441
v 0.199668 1.227166 -1.287270
v 0.045409 1.228207 -1.315880
v 0.072893 1.228207 -1.321433
v 0.049976 1.228207 -1.301341
v 0.049976 1.228207 -1.283370
v 0.044256 1.228207 -1.268831
v 0.072893 1.228207 -1.263278
v 0.090264 1.228207 -1.268831
v 0.101000 1.228207 -1.283370
v 0.101000 1.228207 -1.301341
v 0.090264 1.228207 -1.315880
v 0.046948 1.213409 -1.314508
v 0.072829 1.213409 -1.319738
v 0.054437 1.213409 -1.300817
v 0.054437 1.213409 -1.283894
v 0.045862 1.213409 -1.270203
v 0.072829 1.213409 -1.264973
v 0.089187 1.213409 -1.270203
v 0.099297 1.213409 -1.283894
v 0.099297 1.213409 -1.300817
v 0.089187 1.213409 -1.314508
v 0.059266 1.205305 -1.304675
v 0.072369 1.205305 -1.307583
v 0.061658 1.205305 -1.297061
v 0.061658 1.205305 -1.287650
v 0.058662 1.205305 -1.280036
v 0.072369 1.205305 -1.277128
v 0.081466 1.205305 -1.280036
v 0.087089 1.205305 -1.287650
v 0.087089 1.205305 -1.297061
v 0.081466 1.205305 -1.304675
v 0.065924 1.203896 -1.297589
v 0.072038 1.203896 -1.298824
v 0.066940 1.203896 -1.294354
v 0.066940 1.203896 -1.290357
v 0.065668 1.203896 -1.287122
v 0.072038 1.203896 -1.285887
v 0.075902 1.203896 -1.287122
v 0.078290 1.203896 -1.290357
v 0.078290 1.203896 -1.294354
v 0.075902 1.203896 -1.297589
vn 0.0360 -0.8480 -0.5288
vn 0.2635 -0.8749 -0.4063
vn 0.0823 -0.9911 -0.1047
vn 0.0087 -0.9910 -0.1334
vn 0.0546 -0.4637 -0.8843
vn -0.7697 -0.5058 -0.3895
vn -0.7514 0.4749 -0.4581
vn 0.0455 0.5638 -0.8247
vn -0.6333 -0.7288 -0.2604
vn -0.5049 -0.8532 0.1306
vn -0.7876 -0.4904 0.3732
vn -0.8490 -0.4608 -0.2586
vn -0.4788 -0.8651 -0.1496
vn 0.3666 -0.9192 0.1437
vn 0.3666 -0.9192 -0.1437
vn 0.7074 -0.6099 -0.3573
vn 0.7074 -0.6099 0.3573
vn -0.0441 -0.8384 0.5433
vn 0.0794 -0.4787 0.8744
vn -0.6219 -0.7520 0.2186
vn -0.8543 -0.4709 0.2201
vn 0.4955 -0.4977 -0.7119
vn 0.2417 -0.8829 0.4027
vn 0.4869 -0.5113 0.7082
vn 0.0487 0.5647 0.8239
vn 0.4679 0.5636 0.6807
vn -0.3367 0.8167 -0.4686
vn -0.0350 0.8016 -0.5968
vn 0.4339 -0.5609 -0.7050
vn 0.4339 -0.5609 0.7050
vn -0.7657 0.4706 0.4384
vn -0.7185 0.6804 0.1442
vn 0.4679 0.5636 -0.6807
vn 0.3896 0.7419 -0.5458
vn -0.7010 0.6927 -0.1699
vn 0.3896 0.7419 0.5458
vn -0.2840 -0.9560 0.0731
vn 0.1271 -0.9912 -0.0374
vn 0.1271 -0.9912 0.0374
vn 0.0761 -0.9904 0.1150
vn 0.0017 -0.9911 0.1328
vn -0.3085 -0.9437 -0.1193
vn -0.2898 -0.9553 -0.0590
vn -0.2856 -0.9569 0.0524
vn 0.1308 0.6940 0.7080
vn 0.2392 -0.7522 0.6140
vn 0.2556 0.5684 0.7821
vn 0.1308 0.6940 -0.7080
vn 0.2392 -0.7522 -0.6140
vn 0.2556 0.5684 -0.7821
vn 0.7701 0.4413 -0.4606
vn 0.7492 -0.5893 -0.3024
vn 0.7492 -0.5893 0.3024
vn 0.7701 0.4413 0.4606
vn -0.3367 0.8167 0.4686
vn -0.0326 0.8025 0.5957
vn -0.0468 0.4948 0.8678
vn -0.5076 0.4937 0.7061
vn 0.6423 0.7486 0.1645
vn 0.6399 0.7557 -0.1395
vn -0.5455 0.8187 -0.1793
vn 0.2796 0.9492 -0.1440
vn 0.2915 0.9430 0.1604
vn -0.5455 0.8187 0.1793
vn -0.8238 0.4980 0.2707
vn -0.2265 0.9198 0.3205
vn -0.3666 0.9223 0.1220
vn -0.8238 0.4980 -0.2707
vn -0.5076 0.4937 -0.7061
vn 0.7725 0.5106 -0.3776
vn 0.8605 0.4477 0.2430
vn 0.7627 0.5077 0.4007
vn -0.0502 0.4951 -0.8674
vn 0.8648 0.4568 -0.2086
vn -0.0227 0.9194 -0.3926
vn -0.2265 0.9198 -0.3205
vn -0.0533 0.9957 -0.0762
vn -0.0052 0.9957 -0.0925
vn 0.5225 0.8451 0.1134
vn 0.5208 0.8484 -0.0943
vn -0.0210 0.9192 0.3931
vn -0.3666 0.9223 -0.1220
vn 0.4279 0.9012 -0.0687
vn 0.4186 0.9031 0.0960
vn 0.1429 0.9896 0.0145
vn 0.1369 0.9905 -0.0138
vn 0.1385 0.9902 0.0170
vn 0.1508 0.9886 -0.0019
vn -0.0864 0.9958 -0.0290
vn -0.0864 0.9958 0.0290
vn -0.0533 0.9957 0.0762
vn -0.0047 0.9957 0.0927
vt 0.000000 0.000000
s 1
usemtl Material.004
f 1/1/1 10/1/2 40/1/3 31/1/4
f 12/1/5 11/1/6 21/1/7 22/1/8
f 4/1/9 5/1/10 15/1/11 14/1/12
f 1/1/1 2/1/13 11/1/6 12/1/5
f 8/1/14 9/1/15 19/1/16 18/1/17
f 5/1/10 6/1/18 16/1/19 15/1/11
f 2/1/13 3/1/20 13/1/21 11/1/6
f 9/1/15 10/1/2 20/1/22 19/1/16
f 6/1/18 7/1/23 17/1/24 16/1/19
f 3/1/20 4/1/9 14/1/12 13/1/21
f 10/1/2 1/1/1 12/1/5 20/1/22
f 7/1/23 8/1/14 18/1/17 17/1/24
f 26/1/25 27/1/26 59/1/27 58/1/28
f 18/1/17 19/1/16 41/1/29 42/1/30
f 15/1/11 16/1/19 26/1/25 25/1/31
f 11/1/6 13/1/21 23/1/32 21/1/7
f 19/1/16 20/1/22 30/1/33 29/1/34
f 16/1/19 17/1/24 27/1/26 26/1/25
f 13/1/21 14/1/12 24/1/35 23/1/32
f 20/1/22 12/1/5 22/1/8 30/1/33
f 17/1/24 18/1/17 28/1/36 27/1/26
f 14/1/12 15/1/11 25/1/31 24/1/35
f 32/1/37 31/1/4 40/1/3 39/1/38 38/1/39 37/1/40 36/1/41 35/1/42 34/1/43 33/1/44
f 8/1/14 7/1/23 37/1/40 38/1/39
f 5/1/10 4/1/9 34/1/43 35/1/42
f 2/1/13 1/1/1 31/1/4 32/1/37
f 9/1/15 8/1/14 38/1/39 39/1/38
f 6/1/18 5/1/10 35/1/42 36/1/41
f 3/1/20 2/1/13 32/1/37 33/1/44
f 10/1/2 9/1/15 39/1/38 40/1/3
f 7/1/23 6/1/18 36/1/41 37/1/40
f 4/1/9 3/1/20 33/1/44 34/1/43
f 44/1/45 42/1/30 46/1/46 48/1/47
f 29/1/34 28/1/36 44/1/45 43/1/48
f 19/1/16 29/1/34 43/1/48 41/1/29
f 28/1/36 18/1/17 42/1/30 44/1/45
f 45/1/49 47/1/50 51/1/51 49/1/52
f 43/1/48 44/1/45 48/1/47 47/1/50
f 41/1/29 43/1/48 47/1/50 45/1/49
f 42/1/30 41/1/29 45/1/49 46/1/46
f 50/1/53 49/1/52 51/1/51 52/1/54
f 46/1/46 45/1/49 49/1/52 50/1/53
f 48/1/47 46/1/46 50/1/53 52/1/54
f 47/1/50 48/1/47 52/1/54 51/1/51
f 62/1/55 54/1/56 64/1/57 72/1/58
f 23/1/32 24/1/35 56/1/59 55/1/60
f 30/1/33 22/1/8 54/1/56 62/1/55
f 27/1/26 28/1/36 60/1/61 59/1/27
f 24/1/35 25/1/31 57/1/62 56/1/59
f 22/1/8 21/1/7 53/1/63 54/1/56
f 28/1/36 29/1/34 61/1/64 60/1/61
f 25/1/31 26/1/25 58/1/28 57/1/62
f 21/1/7 23/1/32 55/1/60 53/1/63
f 29/1/34 30/1/33 62/1/55 61/1/64
f 71/1/65 72/1/58 82/1/66 81/1/67
f 59/1/27 60/1/61 70/1/68 69/1/69
f 56/1/59 57/1/62 67/1/70 66/1/71
f 54/1/56 53/1/63 63/1/72 64/1/57
f 60/1/61 61/1/64 71/1/65 70/1/68
f 57/1/62 58/1/28 68/1/73 67/1/70
f 53/1/63 55/1/60 65/1/74 63/1/72
f 61/1/64 62/1/55 72/1/58 71/1/65
f 58/1/28 59/1/27 69/1/69 68/1/73
f 55/1/60 56/1/59 66/1/71 65/1/74
f 78/1/75 79/1/76 89/1/77 88/1/78
f 68/1/73 69/1/69 79/1/76 78/1/75
f 65/1/74 66/1/71 76/1/79 75/1/80
f 72/1/58 64/1/57 74/1/81 82/1/66
f 69/1/69 70/1/68 80/1/82 79/1/76
f 66/1/71 67/1/70 77/1/83 76/1/79
f 64/1/57 63/1/72 73/1/84 74/1/81
f 70/1/68 71/1/65 81/1/67 80/1/82
f 67/1/70 68/1/73 78/1/75 77/1/83
f 63/1/72 65/1/74 75/1/80 73/1/84
f 83/1/85 85/1/86 86/1/87 87/1/88 88/1/78 89/1/77 90/1/89 91/1/90 92/1/91 84/1/92
f 75/1/80 76/1/79 86/1/87 85/1/86
f 82/1/66 74/1/81 84/1/92 92/1/91
f 79/1/76 80/1/82 90/1/89 89/1/77
f 76/1/79 77/1/83 87/1/88 86/1/87
f 74/1/81 73/1/84 83/1/85 84/1/92
f 80/1/82 81/1/67 91/1/90 90/1/89
f 77/1/83 78/1/75 88/1/78 87/1/88
f 73/1/84 75/1/80 85/1/86 83/1/85
f 81/1/67 82/1/66 92/1/91 91/1/90
